<svg xmlns="http://www.w3.org/2000/svg" width="72" height="72" shape-rendering="geometricPrecision" text-rendering="geometricPrecision" image-rendering="optimizeQuality" fill-rule="evenodd" clip-rule="evenodd"><defs><style>.fil0{fill:#fff}</style></defs><g id="Слой_x0020_1"><g id="_1251112160672"><path class="fil0" d="M35 18c12-2 22 7 23 17 3 12-6 22-16 23-12 3-22-6-24-16-2-11 5-22 17-24zm0 54h9c14-3 24-13 27-27l1-3v-8c-1-4-1-6-4-12-2-3-5-7-8-9-7-6-13-9-24-8v7c-1 5-8 1-16 8-7 8-3 15-8 16H5C4 48 9 58 17 65c2 1 3 2 5 3 7 3 11 3 13 4z"/><path class="fil0" d="M37 48c3-1 4 2 2 3-1 1-2 0-2 0-1-1-1-2 0-3zm0-15c8-2 10 10 3 11-8 2-11-10-3-11zm12 7c-1 0-2-1-1-2 0-1 1-2 2-1 2 0 2 4-1 3zm-23-3c3-1 4 2 2 3-1 0-2 0-3-1 0-2 1-2 1-2zm11-11c3-2 4 2 2 3-1 0-3-1-2-2v-1zm18 14c1-9-6-17-14-18-10-1-18 6-19 14-1 10 6 18 14 19 10 1 17-6 19-15zM0 30v3c1 1 4 1 6 1s5 0 7-1c1-5 1-9 6-14 2-2 4-3 6-4 3-2 5-1 8-2 1-2 1-12 0-13h-3c-2 1-6 1-12 4-3 1-6 4-8 6C0 20 1 27 0 30z"/></g></g></svg>