<svg xmlns="http://www.w3.org/2000/svg" width="72" height="72" shape-rendering="geometricPrecision" text-rendering="geometricPrecision" image-rendering="optimizeQuality" fill-rule="evenodd" clip-rule="evenodd"><path d="M-45-103c12-2 22 6 24 16 2 13-7 22-17 24-12 2-22-6-24-16-2-11 6-22 17-24zm0 54h7c1-1 1-1 2-1 14-2 24-12 27-26l1-3v-9c-1-3-1-5-4-11-1-3-5-7-7-9-8-6-14-9-25-9v8c-1 5-8 0-15 8-8 8-4 14-8 15-2 1-6 0-8 0-1 13 4 22 12 29 2 1 4 2 5 4 7 3 11 3 13 4zm3-24c2-2 3 2 2 3-1 0-2 0-3-1s0-2 1-2zm-1-16c8-2 10 10 3 12-8 1-10-10-3-12zm12 8c-1-1-1-1-1-3 0 0 1-1 2-1 2 1 3 4-1 4zm-22-4c2-1 3 3 1 4-1 0-2 0-2-1-1-2 1-2 1-3zm11-11c2-1 3 2 2 3-2 1-4 0-3-2 0-1 0 0 1-1zm17 15c1-10-6-17-14-18-10-2-18 5-19 14s6 17 14 18c10 2 18-6 19-14zm-55-10v3c2 1 4 0 6 0 3 0 5 1 7 0 1-5 1-9 6-14 2-2 4-3 6-5 3-1 5-1 9-2 0-1 0-11-1-12h-3c-2 1-5 0-11 3-4 2-7 5-9 7-9 9-8 17-10 20zM25 56c0-1 2-1 3-2 2-1 1-1 1-4 0-4 5-7 9-6 3 1 5 3 5 6 0 2-1 3 1 4 1 0 3 1 3 2 2 2-9 12-20 3-1 0-2-2-2-3zm25-19c-1 0-1 1-2 2l-4 5c0 1 0 2-1 2-3-3-3-2-5-3l5-7c0-1 1-1 1-2l1-1 1-2c3 1 4 2 5 4 0 0-1 1-1 2zm-27-4c0-1 2-2 3-2l1 2 2 2c0 1 1 2 1 3 1 0 4 4 4 5-3 1-2 0-5 3 0 0-1-1-1-2l-4-4v-2l-1-1c-1 0-1-1-2-2 0-1 1-2 2-2zm33 2v1l-1 1v1c-1-1-2-2-2-3l-1-1c0-1-1-2-2-2-4-4-5-1-8-3 1-2 5-7 7-10l9 7c1 1 2 1 3 2 0 1-3 4-3 5-1 1-1 2-2 2zm-36-1l-1 1c0 2 0 2-1 3l-1-1-1-2s0 1 0 0h-1v-1s-4-5-4-6c1-1 2-2 3-2 2-1 9-6 10-7l6 10c-2 2-2 0-6 2-3 1-3 3-4 3zm30-16s0-1 1-2c1 1 8 6 9 7 1 0 3 1 4 2-1 1-1 2-2 2l-6-4c-1-1-6-4-6-5zm-29-2c1 1 1 2 2 2l-13 9-1-2 12-9zM9 34v1l2 2c0 1 1 1 1 3h1c1 1 3 3 3 5v9c0 2-1 7 0 8 1 2 3 3 4 5h32c1-1 2-3 4-4 1-2 1-2 1-7v-7c0-4-1-5 1-7l12-17c-2-2-3-3-5-4l-13-9c-1-1-2-2-3-2 0 1-1 2-2 3l-6 8H31s-7-10-8-11c-1 0-4 3-5 4-2 1-4 2-5 3-2 1-10 7-11 8l7 9zm63-12v-6c-1 0-10-6-12-8-1-1-3-2-4-3-1 1-2 1-4 2-1 0-1 0-2 2 1 1 2 1 3 2l18 12c1 0 0 0 1-1zM0 17v5c1 0 1 1 1 1L22 9c-1-3-3-2-6-4C15 6 0 16 0 17zm35 30c-4 2-3 9 2 8 5-2 3-10-2-8zm17-22c-2 1-3 2-2 3 0 1 1 3 3 2 3-1 2-6-1-5zm-35 3c1 3 6 2 5-1 0-3-6-2-5 1z" fill="#fff"/></svg>