<svg xmlns="http://www.w3.org/2000/svg" width="72" height="72" shape-rendering="geometricPrecision" text-rendering="geometricPrecision" image-rendering="optimizeQuality" fill-rule="evenodd" clip-rule="evenodd"><path d="M-45-103c12-2 22 6 24 16 2 13-7 22-17 24-12 2-22-6-24-16-2-11 6-22 17-24zm0 54h7c1-1 1-1 2-1 14-2 24-12 27-26l1-3v-9c-1-3-1-5-4-11-1-3-5-7-7-9-8-6-14-9-25-9v8c-1 5-8 0-15 8-8 8-4 14-8 15-2 1-6 0-8 0-1 13 4 22 12 29 2 1 4 2 5 4 7 3 11 3 13 4zm3-24c2-2 3 2 2 3-1 0-2 0-3-1s0-2 1-2zm-1-16c8-2 10 10 3 12-8 1-10-10-3-12zm12 8c-1-1-1-1-1-3 0 0 1-1 2-1 2 1 3 4-1 4zm-22-4c2-1 3 3 1 4-1 0-2 0-2-1-1-2 1-2 1-3zm11-11c2-1 3 2 2 3-2 1-4 0-3-2 0-1 0 0 1-1zm17 15c1-10-6-17-14-18-10-2-18 5-19 14s6 17 14 18c10 2 18-6 19-14zm-55-10v3c2 1 4 0 6 0 3 0 5 1 7 0 1-5 1-9 6-14 2-2 4-3 6-5 3-1 5-1 9-2 0-1 0-11-1-12h-3c-2 1-5 0-11 3-4 2-7 5-9 7-9 9-8 17-10 20z"/><path d="M49-68c1-1 2-1 3-2 3-1 1-2 2-4 0-4 5-7 9-6 2 1 4 3 4 5 1 3 0 4 1 5 1 0 3 1 4 1 1 2-10 12-21 4-1-1-2-2-2-3zm25-20c0 1-1 2-2 3l-3 5-2 2c-2-3-2-2-5-4 1 0 5-6 6-7v-1c1 0 0 0 1-1l1-2c3 0 5 2 6 4-1 0-1 1-2 1zm-27-4c1 0 3-1 4-1l1 2s0-1 0 0l1 2c1 1 1 2 2 2 0 0 3 5 4 5-3 2-3 1-5 4-1 0-2-2-2-2l-3-5c-1 0-1 0-1-1l-1-1c-1-1 0-2-2-2 1-1 2-2 2-3zm34 3l-1 1-1 1s1 0 0 0-2-1-2-2v-2c-1 0-2-1-2-1-4-4-6-2-8-3 0-2 5-8 6-10l10 7c1 0 2 1 3 2-1 1-3 4-4 5s-1 1-1 2zm-37-1v1c-1 2-1 2-2 2l-2-2s1 0 0 0v-1c-1 0-4-5-5-6 1-1 3-2 4-2 1-1 8-6 9-7l6 10c-2 1-2-1-6 1-3 2-3 3-4 4zm30-16c0-1 1-1 1-2 1 0 8 6 10 7 1 0 2 1 3 2l-2 2-6-5c-1 0-6-3-6-4zm-28-2c0 1 1 1 1 2l-12 9c-1 0-1 0-1-1l-1-1 13-9zM33-90l1 1 1 2 2 2v1c1 1 3 3 3 5v9c0 1-1 7 0 8l5 5h31c1-2 3-3 4-4 2-2 1-2 1-7v-7c0-4 0-5 1-7l13-18-6-3-13-10c-1 0-2-1-3-1 0 1-1 2-2 2l-5 8H55s-7-9-7-10c-1 0-5 2-6 3-2 2-3 3-5 4s-10 7-11 8l7 9zm63-12v-6c-1-1-9-7-12-8-1-1-3-2-4-3-1 1-2 1-3 1-2 1-2 1-3 3 1 0 2 1 3 1l18 13c1 0 1-1 1-1zm-72-6v6c1 0 1 1 2 1l21-14c-2-4-4-2-6-4h-1c-1 1-15 11-16 11zm35 31c-4 1-3 9 3 7 4-1 3-9-3-7zm17-22c-1 0-2 1-2 3 1 1 2 2 4 2 3-1 1-6-2-5zm-34 3c1 3 6 2 5-1s-6-3-5 1zM68 34s-2 5-3 6v4c1 1 2 2 3 2 3 0 5-3 4-6-1-1-3-5-3-6h-1zM5 24c4 0 3 0 4 1 0 1 1 1 1 2 2 3 2 2 2 5-1 0-6-2-7-2v-6zm39 26H17V31h26v10l1-1 15-11s-3 4-3 5c-3 4-6 8-8 11l-4 5zM24 20v2h5v4H16c-1-1-5-7-5-7H0v14c1 0 5 2 6 2l6 3v17h35c1-1 7-10 8-11l13-20h4v-5h-7c-1 0-1 0-3 1 0 1-1 1-2 2l-12 9v-5H34v-4h4v-5H24v3z" fill="#fff"/></svg>