<svg xmlns="http://www.w3.org/2000/svg" width="72" height="72" shape-rendering="geometricPrecision" text-rendering="geometricPrecision" image-rendering="optimizeQuality" fill-rule="evenodd" clip-rule="evenodd"><path d="M-45-103c12-2 22 6 24 16 2 13-7 22-17 24-12 2-22-6-24-16-2-11 6-22 17-24zm0 54h7c1-1 1-1 2-1 14-2 24-12 27-26l1-3v-9c-1-3-1-5-4-11-1-3-5-7-7-9-8-6-14-9-25-9v8c-1 5-8 0-15 8-8 8-4 14-8 15-2 1-6 0-8 0-1 13 4 22 12 29 2 1 4 2 5 4 7 3 11 3 13 4zm3-24c2-2 3 2 2 3-1 0-2 0-3-1s0-2 1-2zm-1-16c8-2 10 10 3 12-8 1-10-10-3-12zm12 8c-1-1-1-1-1-3 0 0 1-1 2-1 2 1 3 4-1 4zm-22-4c2-1 3 3 1 4-1 0-2 0-2-1-1-2 1-2 1-3zm11-11c2-1 3 2 2 3-2 1-4 0-3-2 0-1 0 0 1-1zm17 15c1-10-6-17-14-18-10-2-18 5-19 14s6 17 14 18c10 2 18-6 19-14zm-55-10v3c2 1 4 0 6 0 3 0 5 1 7 0 1-5 1-9 6-14 2-2 4-3 6-5 3-1 5-1 9-2 0-1 0-11-1-12h-3c-2 1-5 0-11 3-4 2-7 5-9 7-9 9-8 17-10 20zM49-68c1-1 2-1 3-2 3-1 1-2 2-4 0-4 5-7 9-6 2 1 4 3 4 5 1 3 0 4 1 5 1 0 3 1 4 1 1 2-10 12-21 4-1-1-2-2-2-3zm25-20c0 1-1 2-2 3l-3 5-2 2c-2-3-2-2-5-4 1 0 5-6 6-7v-1c1 0 0 0 1-1l1-2c3 0 5 2 6 4-1 0-1 1-2 1zm-27-4c1 0 3-1 4-1l1 2s0-1 0 0l1 2c1 1 1 2 2 2 0 0 3 5 4 5-3 2-3 1-5 4-1 0-2-2-2-2l-3-5c-1 0-1 0-1-1l-1-1c-1-1 0-2-2-2 1-1 2-2 2-3zm34 3l-1 1-1 1s1 0 0 0-2-1-2-2v-2c-1 0-2-1-2-1-4-4-6-2-8-3 0-2 5-8 6-10l10 7c1 0 2 1 3 2-1 1-3 4-4 5s-1 1-1 2zm-37-1v1c-1 2-1 2-2 2l-2-2s1 0 0 0v-1c-1 0-4-5-5-6 1-1 3-2 4-2 1-1 8-6 9-7l6 10c-2 1-2-1-6 1-3 2-3 3-4 4zm30-16c0-1 1-1 1-2 1 0 8 6 10 7 1 0 2 1 3 2l-2 2-6-5c-1 0-6-3-6-4zm-28-2c0 1 1 1 1 2l-12 9c-1 0-1 0-1-1l-1-1 13-9zM33-90l1 1 1 2 2 2v1c1 1 3 3 3 5v9c0 1-1 7 0 8l5 5h31c1-2 3-3 4-4 2-2 1-2 1-7v-7c0-4 0-5 1-7l13-18-6-3-13-10c-1 0-2-1-3-1 0 1-1 2-2 2l-5 8H55s-7-9-7-10c-1 0-5 2-6 3-2 2-3 3-5 4s-10 7-11 8l7 9zm63-12v-6c-1-1-9-7-12-8-1-1-3-2-4-3-1 1-2 1-3 1-2 1-2 1-3 3 1 0 2 1 3 1l18 13c1 0 1-1 1-1zm-72-6v6c1 0 1 1 2 1l21-14c-2-4-4-2-6-4h-1c-1 1-15 11-16 11zm35 31c-4 1-3 9 3 7 4-1 3-9-3-7zm17-22c-1 0-2 1-2 3 1 1 2 2 4 2 3-1 1-6-2-5zm-34 3c1 3 6 2 5-1s-6-3-5 1zm147-19c-1 0-3 5-3 6-1 2-1 3 0 4 0 1 1 2 3 2s4-3 3-6c0-1-2-5-3-6zm-64-10c4 0 4 0 5 1 0 1 0 1 1 2 2 3 1 2 1 5 0 0-5-2-7-2v-6zm40 26h-28v-19h27v10s0-1 1-1l15-11s-3 4-4 5c-2 4-5 8-7 11l-4 5zm-21-30v2h5v4h-13c-1-1-4-7-5-7h-11v14c1 0 5 2 6 2 2 1 5 2 6 3 1 5 1 12 0 17h35c1-1 7-10 8-11l14-20h3v-5h-7c-1 0 0 0-2 1l-2 2-12 9v-5h-15v-4h5v-5h-15v3zM35 11c7-1 15 3 18 7 2 1 2 1 3 3 3 3 5 9 5 14 0 4 0 7-2 10-3 8-11 16-21 16-15 1-26-10-27-24 0-8 3-16 10-21 1-1 2-2 4-2 3-2 6-3 10-3zM0 34v4c0 1 1 6 1 7 1 2 2 5 3 7s2 3 3 5c2 3 5 6 8 9 4 2 8 4 12 5 2 0 7 1 8 1h2c1 0 7-1 8-1 2-1 4-1 6-2 5-3 7-5 10-7 5-5 8-11 10-17 0-1 1-6 1-7v-4c0-2-1-6-1-8l-3-6c-4-8-9-13-17-17-3-1-4-2-7-2-1 0-6-1-8-1h-3c-1 0-5 1-7 1l-6 3C11 8 4 17 1 27c0 1-1 6-1 7zm31 3c0 1 1 3 2 3 1 1 2 1 4 1 1 0 3-1 3-2 1-1 1-2 1-4 0-1-1-3-2-3-2-2-5-2-7 1-1 1-1 2-1 4zm25 5c0-1 0-2-1-2-2 0-6 0-8 1-4 0-3 0 0 6 1 1 1 2 2 3s1 1 2 1c2-2 4-6 5-9zM22 32c1 0 4 0 5-1 1 0 0-1 0-1l-3-6s0-1-1-2c0 0 0-1-1-1-2 1-4 4-5 6 0 1-2 4-1 4 1 1 5 1 6 1zm14 25c1 0 3 0 5-1 0 0 1 0 1-1s-3-5-3-5c-1-1-1-2-2-2-1-2-1-3-2-1-2 2-4 5-5 7 0 1 0 2 1 2 1 1 3 1 5 1zM16 42c1 3 2 6 4 7 1 2 2 2 3 1 1-2 3-5 4-7s0-2-2-2c-2-1-3-1-5-1-3 0-4 0-4 2zm14-25s4 6 4 7c1 2 2 3 3 1l5-7c0-1 0-1-1-2-2-1-5-1-7-1-1 0-4 1-4 2zm26 15c1-2-2-9-6-11-1 0-1 1-1 1l-4 8s-1 1 0 1c0 1 9 1 11 1z" fill="#fff"/></svg>