<?xml version="1.0" encoding="UTF-8"?>
<!DOCTYPE svg PUBLIC "-//W3C//DTD SVG 1.1//EN" "http://www.w3.org/Graphics/SVG/1.1/DTD/svg11.dtd">
<!-- Creator: CorelDRAW X8 -->
<svg xmlns="http://www.w3.org/2000/svg" xml:space="preserve" width="72px" height="72px" version="1.1" style="shape-rendering:geometricPrecision; text-rendering:geometricPrecision; image-rendering:optimizeQuality; fill-rule:evenodd; clip-rule:evenodd"
viewBox="0 0 72 72"
 xmlns:xlink="http://www.w3.org/1999/xlink">
 <defs>
  <style type="text/css">
   <![CDATA[
    .fil0 {fill:white}
   ]]>
  </style>
 </defs>
 <g id="Слой_x0020_1">
  <metadata id="CorelCorpID_0Corel-Layer"/>
  <g id="_1251112160672">
   <path class="fil0" d="M35 18c12,-2 22,7 23,17 3,12 -6,22 -16,23 -12,3 -22,-6 -24,-16 -2,-11 5,-22 17,-24zm0 54l7 0c1,0 1,0 2,0 14,-3 24,-13 27,-27l1 -3 0 -7 0 -1c-1,-4 -1,-6 -4,-12 -2,-3 -5,-7 -8,-9 -7,-6 -13,-9 -24,-8 0,2 0,5 0,7 -1,5 -8,1 -16,8 -7,8 -3,15 -8,16 -2,0 -5,0 -7,0 -1,12 4,22 12,29 2,1 3,2 5,3 7,3 11,3 13,4z"/>
   <path class="fil0" d="M37 48c3,-1 4,2 2,3 -1,1 -2,0 -2,0 -1,-1 -1,-2 0,-3zm0 -15c8,-2 10,10 3,11 -8,2 -11,-10 -3,-11zm12 7c-1,0 -2,-1 -1,-2 0,-1 1,-2 2,-1 2,0 2,4 -1,3zm-23 -3c3,-1 4,2 2,3 -1,0 -2,0 -3,-1 0,-2 1,-2 1,-2zm11 -11c3,-2 4,2 2,3 -1,0 -3,-1 -2,-2 0,-1 0,-1 0,-1zm18 14c1,-9 -6,-17 -14,-18 -10,-1 -18,6 -19,14 -1,10 6,18 14,19 10,1 17,-6 19,-15z"/>
   <path class="fil0" d="M0 30l0 3c1,1 4,1 6,1 2,0 5,0 7,-1 1,-5 1,-9 6,-14 2,-2 4,-3 6,-4 3,-2 5,-1 8,-2 1,-2 1,-12 0,-13l-3 0c-2,1 -6,1 -12,4 -3,1 -6,4 -8,6 -10,10 -9,17 -10,20z"/>
  </g>
 </g>
</svg>
