<?xml version="1.0" encoding="UTF-8"?>
<!DOCTYPE svg PUBLIC "-//W3C//DTD SVG 1.1//EN" "http://www.w3.org/Graphics/SVG/1.1/DTD/svg11.dtd">
<!-- Creator: CorelDRAW X8 -->
<svg xmlns="http://www.w3.org/2000/svg" xml:space="preserve" width="72px" height="72px" version="1.1" style="shape-rendering:geometricPrecision; text-rendering:geometricPrecision; image-rendering:optimizeQuality; fill-rule:evenodd; clip-rule:evenodd"
viewBox="0 0 72 72"
 xmlns:xlink="http://www.w3.org/1999/xlink">
 <defs>
  <style type="text/css">
   <![CDATA[
    .fil0 {fill:white}
    .fil1 {fill:white}
   ]]>
  </style>
 </defs>
 <g id="Слой_x0020_1">
  <metadata id="CorelCorpID_0Corel-Layer"/>
  <path class="fil0" d="M-45 -103c12,-2 22,6 24,16 2,13 -7,22 -17,24 -12,2 -22,-6 -24,-16 -2,-11 6,-22 17,-24zm0 54l7 0c1,-1 1,-1 2,-1 14,-2 24,-12 27,-26l1 -3 0 -8 0 -1c-1,-3 -1,-5 -4,-11 -1,-3 -5,-7 -7,-9 -8,-6 -14,-9 -25,-9 0,3 0,6 0,8 -1,5 -8,0 -15,8 -8,8 -4,14 -8,15 -2,1 -6,0 -8,0 -1,13 4,22 12,29 2,1 4,2 5,4 7,3 11,3 13,4zm3 -24c2,-2 3,2 2,3 -1,0 -2,0 -3,-1 -1,-1 0,-2 1,-2zm-1 -16c8,-2 10,10 3,12 -8,1 -10,-10 -3,-12zm12 8c-1,-1 -1,-1 -1,-3 0,0 1,-1 2,-1 2,1 3,4 -1,4zm-22 -4c2,-1 3,3 1,4 -1,0 -2,0 -2,-1 -1,-2 1,-2 1,-3zm11 -11c2,-1 3,2 2,3 -2,1 -4,0 -3,-2 0,-1 0,0 1,-1zm17 15c1,-10 -6,-17 -14,-18 -10,-2 -18,5 -19,14 -1,9 6,17 14,18 10,2 18,-6 19,-14zm-55 -10l0 3c2,1 4,0 6,0 3,0 5,1 7,0 1,-5 1,-9 6,-14 2,-2 4,-3 6,-5 3,-1 5,-1 9,-2 0,-1 0,-11 -1,-12l-3 0c-2,1 -5,0 -11,3 -4,2 -7,5 -9,7 -9,9 -8,17 -10,20z"/>
  <path class="fil1" d="M25 56c0,-1 2,-1 3,-2 2,-1 1,-1 1,-4 0,-4 5,-7 9,-6 3,1 5,3 5,6 0,2 -1,3 1,4 1,0 3,1 3,2 2,2 -9,12 -20,3 -1,0 -2,-2 -2,-3zm25 -19c-1,0 -1,1 -2,2l-4 5c0,1 0,2 -1,2 -3,-3 -3,-2 -5,-3 0,0 5,-7 5,-7 0,-1 1,-1 1,-2 0,0 0,0 0,0 1,-1 1,-1 1,-1l1 -2c3,1 4,2 5,4 0,0 -1,1 -1,2zm-27 -4c0,-1 2,-2 3,-2l1 2c0,0 0,0 0,0l2 2 0 0c0,1 1,2 1,3 1,0 4,4 4,5 -3,1 -2,0 -5,3 0,0 -1,-1 -1,-2l-4 -4c0,-1 0,-1 0,-2l-1 -1c-1,0 -1,-1 -2,-2 0,-1 1,-2 2,-2zm33 2c0,0 0,0 0,1 0,0 0,0 -1,1 0,0 0,0 0,0 0,0 0,0 0,1 -1,-1 -2,-2 -2,-3 0,0 0,0 -1,-1 0,0 0,0 0,0 0,-1 -1,-2 -2,-2 -4,-4 -5,-1 -8,-3 1,-2 5,-7 7,-10l9 7c1,1 2,1 3,2 0,1 -3,4 -3,5 -1,1 -1,2 -2,2zm-36 -1l-1 1c0,2 0,2 -1,3 -1,-1 -1,-1 -1,-1l-1 -2c0,0 0,1 0,0 0,0 -1,0 -1,0 0,-1 0,-1 0,-1 0,0 -4,-5 -4,-6 1,-1 2,-2 3,-2 2,-1 9,-6 10,-7l6 10c-2,2 -2,0 -6,2 -3,1 -3,3 -4,3zm30 -16c0,0 0,-1 1,-2 1,1 8,6 9,7 1,0 3,1 4,2 -1,1 -1,2 -2,2l-6 -4c-1,-1 -6,-4 -6,-5zm-29 -2c1,1 1,2 2,2l-13 9c0,0 0,0 0,0l-1 -2 12 -9zm-12 18c0,1 0,1 0,1l2 2c0,1 1,1 1,3 1,0 1,0 1,0 1,1 3,3 3,5 0,3 0,6 0,9 0,2 -1,7 0,8 1,2 3,3 4,5l32 0c1,-1 2,-3 4,-4 1,-2 1,-2 1,-7 0,-2 0,-5 0,-7 0,-4 -1,-5 1,-7l12 -17c-2,-2 -3,-3 -5,-4l-13 -9c-1,-1 -2,-2 -3,-2 0,1 -1,2 -2,3l-6 8 -10 0c0,0 -7,-10 -8,-11 -1,0 -4,3 -5,4 -2,1 -4,2 -5,3 -2,1 -10,7 -11,8l7 9zm63 -12l0 -6c-1,0 -10,-6 -12,-8 -1,-1 -3,-2 -4,-3l0 0c-1,1 -2,1 -4,2 -1,0 -1,0 -2,2 1,1 2,1 3,2l18 12c1,0 0,0 1,-1zm-72 -5l0 5c1,0 1,1 1,1l21 -14c-1,-3 -3,-2 -6,-4l0 0c0,0 0,0 0,0 -1,1 -16,11 -16,12zm35 30c-4,2 -3,9 2,8 5,-2 3,-10 -2,-8zm17 -22c-2,1 -3,2 -2,3 0,1 1,3 3,2 3,-1 2,-6 -1,-5zm-35 3c1,3 6,2 5,-1 0,-3 -6,-2 -5,1z"/>
 </g>
</svg>
