<?xml version="1.0" encoding="UTF-8"?>
<!DOCTYPE svg PUBLIC "-//W3C//DTD SVG 1.1//EN" "http://www.w3.org/Graphics/SVG/1.1/DTD/svg11.dtd">
<!-- Creator: CorelDRAW X8 -->
<svg xmlns="http://www.w3.org/2000/svg" xml:space="preserve" width="72px" height="72px" version="1.1" style="shape-rendering:geometricPrecision; text-rendering:geometricPrecision; image-rendering:optimizeQuality; fill-rule:evenodd; clip-rule:evenodd"
viewBox="0 0 72 72"
 xmlns:xlink="http://www.w3.org/1999/xlink">
 <defs>
  <style type="text/css">
   <![CDATA[
    .fil0 {fill:white}
    .fil3 {fill:white}
    .fil2 {fill:white}
    .fil1 {fill:white}
   ]]>
  </style>
 </defs>
 <g id="Слой_x0020_1">
  <metadata id="CorelCorpID_0Corel-Layer"/>
  <path class="fil0" d="M-45 -103c12,-2 22,6 24,16 2,13 -7,22 -17,24 -12,2 -22,-6 -24,-16 -2,-11 6,-22 17,-24zm0 54l7 0c1,-1 1,-1 2,-1 14,-2 24,-12 27,-26l1 -3 0 -8 0 -1c-1,-3 -1,-5 -4,-11 -1,-3 -5,-7 -7,-9 -8,-6 -14,-9 -25,-9 0,3 0,6 0,8 -1,5 -8,0 -15,8 -8,8 -4,14 -8,15 -2,1 -6,0 -8,0 -1,13 4,22 12,29 2,1 4,2 5,4 7,3 11,3 13,4zm3 -24c2,-2 3,2 2,3 -1,0 -2,0 -3,-1 -1,-1 0,-2 1,-2zm-1 -16c8,-2 10,10 3,12 -8,1 -10,-10 -3,-12zm12 8c-1,-1 -1,-1 -1,-3 0,0 1,-1 2,-1 2,1 3,4 -1,4zm-22 -4c2,-1 3,3 1,4 -1,0 -2,0 -2,-1 -1,-2 1,-2 1,-3zm11 -11c2,-1 3,2 2,3 -2,1 -4,0 -3,-2 0,-1 0,0 1,-1zm17 15c1,-10 -6,-17 -14,-18 -10,-2 -18,5 -19,14 -1,9 6,17 14,18 10,2 18,-6 19,-14zm-55 -10l0 3c2,1 4,0 6,0 3,0 5,1 7,0 1,-5 1,-9 6,-14 2,-2 4,-3 6,-5 3,-1 5,-1 9,-2 0,-1 0,-11 -1,-12l-3 0c-2,1 -5,0 -11,3 -4,2 -7,5 -9,7 -9,9 -8,17 -10,20z"/>
  <path class="fil1" d="M49 -68c1,-1 2,-1 3,-2 3,-1 1,-2 2,-4 0,-4 5,-7 9,-6 2,1 4,3 4,5 1,3 0,4 1,5 1,0 3,1 4,1 1,2 -10,12 -21,4 -1,-1 -2,-2 -2,-3zm25 -20c0,1 -1,2 -2,3l-3 5c-1,1 -1,1 -2,2 -2,-3 -2,-2 -5,-4 1,0 5,-6 6,-7 0,0 0,-1 0,-1 1,0 0,0 1,-1 0,0 0,0 0,0l1 -2c3,0 5,2 6,4 -1,0 -1,1 -2,1zm-27 -4c1,0 3,-1 4,-1l1 2c0,0 0,-1 0,0l1 2 0 0c1,1 1,2 2,2 0,0 3,5 4,5 -3,2 -3,1 -5,4 -1,0 -2,-2 -2,-2l-3 -5c-1,0 -1,0 -1,-1l-1 -1c-1,-1 0,-2 -2,-2 1,-1 2,-2 2,-3zm34 3c0,0 0,0 -1,1 0,0 0,0 0,0 0,0 0,0 -1,1 0,0 1,0 0,0 -1,0 -2,-1 -2,-2 0,-1 0,0 0,-1 0,0 0,0 0,-1 -1,0 -2,-1 -2,-1 -4,-4 -6,-2 -8,-3 0,-2 5,-8 6,-10l10 7c1,0 2,1 3,2 -1,1 -3,4 -4,5 -1,1 -1,1 -1,2zm-37 -1l0 1c-1,2 -1,2 -2,2 0,0 0,0 0,0l-2 -2c0,0 1,0 0,0 0,0 0,0 0,-1 0,0 0,0 0,0 -1,0 -4,-5 -5,-6 1,-1 3,-2 4,-2 1,-1 8,-6 9,-7l6 10c-2,1 -2,-1 -6,1 -3,2 -3,3 -4,4zm30 -16c0,-1 1,-1 1,-2 1,0 8,6 10,7 1,0 2,1 3,2 0,0 -1,1 -2,2l-6 -5c-1,0 -6,-3 -6,-4zm-28 -2c0,1 1,1 1,2l-12 9c-1,0 -1,0 -1,-1l-1 -1 13 -9zm-13 18c0,0 0,0 1,1l1 2c1,1 1,1 2,2 0,0 0,0 0,1 1,1 3,3 3,5 0,3 0,6 0,9 0,1 -1,7 0,8 2,2 3,3 5,5l31 0c1,-2 3,-3 4,-4 2,-2 1,-2 1,-7 0,-2 0,-5 0,-7 0,-4 0,-5 1,-7l13 -18c-2,-1 -4,-2 -6,-3l-13 -10c-1,0 -2,-1 -3,-1 0,1 -1,2 -2,2l-5 8 -11 0c0,0 -7,-9 -7,-10 -1,0 -5,2 -6,3 -2,2 -3,3 -5,4 -2,1 -10,7 -11,8l7 9zm63 -12l0 -6c-1,-1 -9,-7 -12,-8 -1,-1 -3,-2 -4,-3l0 0c-1,1 -2,1 -3,1 -2,1 -2,1 -3,3 1,0 2,1 3,1l18 13c1,0 1,-1 1,-1zm-72 -6l0 6c1,0 1,1 2,1l21 -14c-2,-4 -4,-2 -6,-4l0 0c-1,0 -1,0 -1,0 -1,1 -15,11 -16,11zm35 31c-4,1 -3,9 3,7 4,-1 3,-9 -3,-7zm17 -22c-1,0 -2,1 -2,3 1,1 2,2 4,2 3,-1 1,-6 -2,-5zm-34 3c1,3 6,2 5,-1 -1,-3 -6,-3 -5,1z"/>
  <path class="fil2" d="M189 -115c-1,0 -3,5 -3,6 -1,2 -1,3 0,4 0,1 1,2 3,2 2,0 4,-3 3,-6 0,-1 -2,-5 -3,-6l0 0zm-64 -10c4,0 4,0 5,1 0,1 0,1 1,2 2,3 1,2 1,5 0,0 -5,-2 -7,-2l0 -5 0 -1zm40 26l-28 0 0 -19 27 0 0 10c0,0 0,-1 1,-1l15 -11c0,0 -3,4 -4,5 -2,4 -5,8 -7,11l-4 5zm-21 -30l0 2 5 0 0 4 -13 0c-1,-1 -4,-7 -5,-7l-11 0 0 14c1,0 5,2 6,2 2,1 5,2 6,3 1,5 1,12 0,17l35 0c1,-1 7,-10 8,-11l14 -20 3 0 0 -5 -7 0c-1,0 0,0 -2,1 -1,1 -1,1 -2,2l-12 9 0 -5 -15 0 0 -4 5 0 0 -5 -15 0 0 3z"/>
  <path class="fil3" d="M35 11c7,-1 15,3 18,7 2,1 2,1 3,3 3,3 5,9 5,14 0,4 0,7 -2,10 -3,8 -11,16 -21,16 -15,1 -26,-10 -27,-24 0,-8 3,-16 10,-21 1,-1 2,-2 4,-2 3,-2 6,-3 10,-3zm-35 23c0,1 0,1 0,2 0,0 0,1 0,2 0,1 1,6 1,7 1,2 2,5 3,7 1,2 2,3 3,5 2,3 5,6 8,9 4,2 8,4 12,5 2,0 7,1 8,1 0,0 2,0 2,0 1,0 7,-1 8,-1 2,-1 4,-1 6,-2 5,-3 7,-5 10,-7 5,-5 8,-11 10,-17 0,-1 1,-6 1,-7 0,-1 0,-2 0,-2 0,-1 0,-2 0,-2 0,-2 -1,-6 -1,-8 -1,-2 -2,-4 -3,-6 -4,-8 -9,-13 -17,-17 -3,-1 -4,-2 -7,-2 -1,0 -6,-1 -8,-1 0,0 -3,0 -3,0 -1,0 -5,1 -7,1 -2,1 -4,2 -6,3 -9,4 -16,13 -19,23 0,1 -1,6 -1,7zm31 3c0,1 1,3 2,3 1,1 2,1 4,1 1,0 3,-1 3,-2 1,-1 1,-2 1,-4 0,-1 -1,-3 -2,-3 -2,-2 -5,-2 -7,1 -1,1 -1,2 -1,4zm25 5c0,-1 0,-2 -1,-2 -2,0 -6,0 -8,1 -4,0 -3,0 0,6 1,1 1,2 2,3 1,1 1,1 2,1 2,-2 4,-6 5,-9zm-34 -10c1,0 4,0 5,-1 1,0 0,-1 0,-1l-3 -6c0,0 0,-1 -1,-2 0,0 0,-1 -1,-1 -2,1 -4,4 -5,6 0,1 -2,4 -1,4 1,1 5,1 6,1zm14 25c1,0 3,0 5,-1 0,0 1,0 1,-1 0,-1 -3,-5 -3,-5 -1,-1 -1,-2 -2,-2 -1,-2 -1,-3 -2,-1 -2,2 -4,5 -5,7 0,1 0,2 1,2 1,1 3,1 5,1zm-20 -15c1,3 2,6 4,7 1,2 2,2 3,1 1,-2 3,-5 4,-7 1,-2 0,-2 -2,-2 -2,-1 -3,-1 -5,-1 -3,0 -4,0 -4,2zm14 -25c0,0 4,6 4,7 1,2 2,3 3,1l5 -7c0,-1 0,-1 -1,-2 -2,-1 -5,-1 -7,-1 -1,0 -4,1 -4,2zm26 15c1,-2 -2,-9 -6,-11 -1,0 -1,1 -1,1l-4 8c0,0 -1,1 0,1 0,1 9,1 11,1z"/>
 </g>
</svg>
